<?xml version="1.0" standalone="no"?><!DOCTYPE svg PUBLIC "-//W3C//DTD SVG 1.1//EN" "http://www.w3.org/Graphics/SVG/1.1/DTD/svg11.dtd"><svg t="1573545740389" class="icon" viewBox="0 0 1024 1024" version="1.1" xmlns="http://www.w3.org/2000/svg" p-id="1963" xmlns:xlink="http://www.w3.org/1999/xlink" width="200" height="200"><defs><style type="text/css"></style></defs><path d="M512 142.222222c204.8 0 369.777778 164.977778 369.777778 369.777778s-164.977778 369.777778-369.777778 369.777778S142.222222 716.8 142.222222 512 307.2 142.222222 512 142.222222m0-85.333333C261.688889 56.888889 56.888889 261.688889 56.888889 512s204.8 455.111111 455.111111 455.111111 455.111111-204.8 455.111111-455.111111S762.311111 56.888889 512 56.888889z" fill="#0088FF" p-id="1964"></path><path d="M512 369.777778c31.288889 0 56.888889 25.6 56.888889 56.888889s-25.6 56.888889-56.888889 56.888889-56.888889-25.6-56.888889-56.888889 25.6-56.888889 56.888889-56.888889m0-85.333334c-79.644444 0-142.222222 62.577778-142.222222 142.222223s62.577778 142.222222 142.222222 142.222222 142.222222-62.577778 142.222222-142.222222-62.577778-142.222222-142.222222-142.222223zM512 597.333333c-119.466667 0-219.022222 71.111111-261.688889 176.355556 19.911111 19.911111 45.511111 39.822222 71.111111 54.044444 22.755556-82.488889 99.555556-145.066667 190.577778-145.066666s167.822222 62.577778 190.577778 145.066666c25.6-14.222222 48.355556-34.133333 71.111111-54.044444-42.666667-105.244444-142.222222-176.355556-261.688889-176.355556z" fill="#0088FF" p-id="1965"></path></svg>