<?xml version="1.0" standalone="no"?><!DOCTYPE svg PUBLIC "-//W3C//DTD SVG 1.1//EN" "http://www.w3.org/Graphics/SVG/1.1/DTD/svg11.dtd"><svg t="1573545724552" class="icon" viewBox="0 0 1024 1024" version="1.1" xmlns="http://www.w3.org/2000/svg" p-id="1459" xmlns:xlink="http://www.w3.org/1999/xlink" width="200" height="200"><defs><style type="text/css"></style></defs><path d="M508.712623 495.563113m-376.422776 0a376.422776 376.422776 0 1 0 752.845551 0 376.422776 376.422776 0 1 0-752.845551 0Z" fill="#E9EAEB" p-id="1460"></path><path d="M493.034361 9.320257h31.356523v219.567911h-31.356523zM248.785832 69.981401l27.158795-15.678261 114.046709 197.531644-27.158795 15.678262zM73.355479 259.486065l15.678261-27.15157 197.531645 114.046709-15.678262 27.15157zM22.542017 479.884851h219.56791v31.356523H22.542017zM76.707881 730.679235l197.55332-114.010583 15.678261 27.15157-197.560544 114.010583zM742.586044 637.859592l15.678261-27.15157 197.531645 114.046709-15.678261 27.15157zM790.993579 479.884851h219.567911v31.356523h-219.567911zM739.118041 340.355549l197.560545-114.010583 15.671037 27.158795-197.55332 114.010583zM633.199464 248.395682l114.010583-197.55332 27.158795 15.678262-114.010583 197.546094z" fill="#2A5082" p-id="1461"></path><path d="M415.127129 195.183518l30.287222-8.106456 10.909758 40.756255-30.279997 8.113681zM279.983405 284.723009l22.180766-22.166317 29.824822 29.839272-22.180766 22.166316zM207.668327 429.598815l8.113681-30.287223 40.756255 10.924208-8.113681 30.287223zM209.467353 561.130036l40.756255-10.909758 8.113681 30.287222-40.756255 10.909758zM284.853059 704.452466l29.839271-29.839272 22.166317 22.173541-29.839272 29.839272zM697.082961 691.888182l22.166316-22.180766 29.839272 29.839271-22.166317 22.173542zM775.741593 571.483469l8.149806-30.417273 40.929655 10.974783-8.157031 30.417273zM770.763565 403.697171l40.763479-10.909758 8.106456 30.287222-40.756255 10.909758zM692.213307 287.410711l29.839272-29.832047 22.173541 22.180766-29.839272 29.832047zM566.02859 225.990941l10.916983-40.76348 30.287222 8.113681-10.909758 40.756254z" fill="#BCC0C4" p-id="1462"></path><path d="M527.425386 276.211952a227.226416 227.226416 0 0 0-171.955126 387.332534 144.500106 144.500106 0 0 1 43.350032 101.872575v28.10527h235.390673v-28.17752a139.370352 139.370352 0 0 1 41.47153-99.777324 226.142666 226.142666 0 0 0 68.49305-161.840118 229.321668 229.321668 0 0 0-216.750159-227.515417z" fill="#A3D4FF" p-id="1463"></path><path d="M649.889226 793.522331H618.460453v-28.17752A155.843364 155.843364 0 0 1 664.700487 654.368729a209.525153 209.525153 0 0 0 63.580046-150.64136A213.787907 213.787907 0 0 0 526.630636 291.890214a211.548155 211.548155 0 0 0-160.106118 360.600014 159.672617 159.672617 0 0 1 48.118536 112.926833v28.10527H382.92528v-28.10527a128.605094 128.605094 0 0 0-38.942778-90.818317 242.976928 242.976928 0 0 1 184.093135-414.065053 245.65018 245.65018 0 0 1 231.561419 243.193678A240.809426 240.809426 0 0 1 686.375503 676.766246a124.342341 124.342341 0 0 0-36.703027 88.506315z" fill="#2A5082" p-id="1464"></path><path d="M379.312778 439.063572l-28.900021-12.57151a172.605376 172.605376 0 0 1 123.83659-99.994073l6.213505 30.706273a141.248853 141.248853 0 0 0-101.150074 81.85931zM367.536019 495.563113h-31.356523a173.400127 173.400127 0 0 1 3.395753-34.535525l30.706272 6.285754a142.477104 142.477104 0 0 0-2.745502 28.249771zM546.57165 1013.090242h-60.039794L455.175333 981.733719h-24.854018v-31.356523h37.859028l31.356523 31.356523h34.029775l31.356523-31.356523h37.931278v31.356523h-24.926269l-31.356523 31.356523zM383.214281 824.878854h266.602695v31.356523h-266.602695zM383.214281 887.5919h266.602695v31.356523h-266.602695zM571.425669 699.452762h-31.356523v-93.925068h-47.034785v93.925068H461.677838v-93.925068h-14.45001a45.011783 45.011783 0 0 1-45.806534-45.156284 45.806534 45.806534 0 1 1 91.613067 0.650251v13.22176h47.034785v-13.51076a45.878784 45.878784 0 0 1 45.806533-45.806534 45.228533 45.228533 0 1 1 0 90.384816h-14.45001z m0-125.498342h14.45001a13.87201 13.87201 0 1 0 0-27.67177 14.450011 14.450011 0 0 0-14.45001 14.450011zM447.227828 545.99365a14.450011 14.450011 0 0 0-14.450011 14.45001 14.01651 14.01651 0 0 0 14.450011 13.799761h14.45001v-13.51076a14.450011 14.450011 0 0 0-14.45001-14.739011z" fill="#2A5082" p-id="1465"></path></svg>